<svg width="22" height="24" viewBox="0 0 22 24" fill="none" xmlns="http://www.w3.org/2000/svg">
<path d="M20.8824 7.07654V17.2817C20.8824 17.3993 20.851 17.5148 20.7913 17.6162C20.7317 17.7176 20.646 17.8011 20.5431 17.8582L11.3196 22.9816C11.2218 23.0359 11.1118 23.0643 11 23.0643C10.8882 23.0643 10.7783 23.0359 10.6805 22.9816L1.45697 17.8582C1.3541 17.8011 1.26839 17.7176 1.20872 17.6162C1.14906 17.5148 1.11762 17.3993 1.11768 17.2817V7.07654C1.11781 6.9591 1.14934 6.84383 1.209 6.74267C1.26865 6.6415 1.35427 6.55813 1.45697 6.50117L10.6805 1.37662C10.7783 1.3224 10.8882 1.29395 11 1.29395C11.1118 1.29395 11.2218 1.3224 11.3196 1.37662L20.5431 6.50117C20.6458 6.55813 20.7314 6.6415 20.7911 6.74267C20.8507 6.84383 20.8822 6.9591 20.8824 7.07654V7.07654Z" stroke="#131A29" stroke-width="1.6" stroke-linecap="round" stroke-linejoin="round"/>
<path d="M1.69775 7.01171L10.6797 12.0012C10.7776 12.0556 10.8878 12.0842 10.9998 12.0842C11.1118 12.0842 11.222 12.0556 11.3199 12.0012L20.3337 6.99414M11.0003 22.0614V12.1791" stroke="#131A29" stroke-width="1.6" stroke-linecap="round" stroke-linejoin="round"/>
</svg>
