<svg width="26" height="23" viewBox="0 0 26 23" fill="none" xmlns="http://www.w3.org/2000/svg">
<path d="M21.8957 19.2503C21.8957 20.6771 20.7391 21.8337 19.3123 21.8337C17.8856 21.8337 16.729 20.6771 16.729 19.2503M21.8957 19.2503C21.8957 17.8236 20.7391 16.667 19.3123 16.667C17.8856 16.667 16.729 17.8236 16.729 19.2503M21.8957 19.2503H24.479V11.5003M16.729 19.2503H15.4373M8.979 19.2503C8.979 20.6771 7.82241 21.8337 6.39567 21.8337C4.96893 21.8337 3.81234 20.6771 3.81234 19.2503M8.979 19.2503C8.979 17.8236 7.82241 16.667 6.39567 16.667C4.96893 16.667 3.81234 17.8236 3.81234 19.2503M8.979 19.2503H15.4373M3.81234 19.2503C2.3856 19.2503 1.229 18.0937 1.229 16.667V5.30033C1.229 3.85352 1.229 3.13012 1.51057 2.57752C1.75824 2.09143 2.15344 1.69623 2.63953 1.44856C3.19213 1.16699 3.91553 1.16699 5.36234 1.16699H11.304C12.7508 1.16699 13.4742 1.16699 14.0268 1.44856C14.5129 1.69623 14.9081 2.09143 15.1558 2.57752C15.4373 3.13012 15.4373 3.85352 15.4373 5.30033V19.2503M15.4373 19.2503V6.33366H20.604L24.479 11.5003M24.479 11.5003H15.4373" stroke="#131A29" stroke-width="1.6" stroke-linecap="round" stroke-linejoin="round"/>
</svg>
