<svg width="22" height="25" viewBox="0 0 22 25" fill="none" xmlns="http://www.w3.org/2000/svg">
<path d="M7.24951 13L9.74951 15.5L14.7495 10.5M20.9995 13C20.9995 18.5764 14.1746 22.6171 11.8013 23.8537C11.5446 23.9874 11.4162 24.0543 11.2382 24.0889C11.0995 24.1159 10.8995 24.1159 10.7608 24.0889C10.5828 24.0543 10.4544 23.9874 10.1977 23.8537C7.82446 22.6171 0.999512 18.5764 0.999512 13V8.27196C0.999512 7.27257 0.999512 6.77288 1.16296 6.34334C1.30735 5.96389 1.54199 5.62531 1.84658 5.35687C2.19138 5.05301 2.65926 4.87755 3.59502 4.52665L10.2973 2.0133C10.5571 1.91585 10.6871 1.86713 10.8207 1.84781C10.9393 1.83068 11.0597 1.83068 11.1783 1.84781C11.312 1.86713 11.4419 1.91585 11.7018 2.0133L18.404 4.52665C19.3398 4.87755 19.8076 5.05301 20.1524 5.35687C20.457 5.62531 20.6917 5.96389 20.8361 6.34334C20.9995 6.77288 20.9995 7.27257 20.9995 8.27196V13Z" stroke="#131A29" stroke-width="1.7" stroke-linecap="round" stroke-linejoin="round"/>
</svg>
