<svg width="416" height="411" viewBox="0 0 416 411" fill="none" xmlns="http://www.w3.org/2000/svg">
<path d="M208.104 227.355H290.683C290.165 229.198 289.648 231.245 288.613 233.804C288.406 234.623 288.406 235.135 288.095 235.851C287.785 236.875 287.268 237.899 287.061 238.718C285.198 243.119 282.921 247.419 280.024 251.513C279.196 252.742 278.472 253.561 277.644 254.585C277.126 255.403 276.609 255.915 276.299 256.427C274.229 258.986 272.366 261.545 270.09 263.9C268.744 265.231 267.192 266.459 265.95 267.79L265.122 268.302C262.742 270.656 260.466 272.396 258.396 273.932C256.326 275.467 254.464 276.798 252.394 277.822C250.324 279.05 247.944 280.381 244.84 281.916L243.805 282.428C241.942 283.247 240.39 283.963 238.631 284.782C235.526 285.806 232.422 286.83 229.317 287.649C228.8 287.649 227.972 287.854 227.248 288.161C226.213 288.468 224.868 288.672 223.833 288.979C218.348 290.003 213.174 290.515 207.69 290.515C184.82 290.515 163.295 281.814 147.256 265.64C131.112 249.671 122.109 228.379 122.109 205.551C122.316 182.928 131.216 161.636 147.566 145.769C151.498 141.675 155.845 138.092 160.501 135.226C174.472 125.706 190.822 120.894 208 120.894H250.324L266.157 77.4909H208C173.437 77.4909 140.736 90.7986 116.314 114.957C112.382 118.847 108.553 123.146 104.414 128.776L103.586 129.596C103.069 130.414 102.551 131.131 102.034 131.643C98.412 136.761 95.3075 141.675 92.7205 146.486C92.41 146.998 92.203 147.51 91.8926 148.021L91.3751 149.045C88.995 153.959 86.9254 158.77 85.3731 163.888L84.8557 164.912C84.5452 165.424 84.3384 165.935 84.3384 166.447C82.4757 171.873 81.2338 177.503 80.199 183.645H45.4289C50.396 148.431 66.4359 116.39 92.203 90.9009C123.041 60.3958 164.33 43.6078 208.207 43.6078H278.782L294.305 0H207.896C152.326 0 100.482 21.2921 60.9512 60.0889C21.7313 98.8856 0 150.478 0 205.449V227.253H80.199C84.6488 253.458 97.0667 277.31 116.004 296.35C140.426 320.508 173.126 334.123 207.896 334.123C212.036 334.123 216.486 333.918 221.142 333.304C221.349 333.304 221.66 333.304 221.97 333.304L222.798 333.099C226.937 332.587 230.87 332.076 234.181 331.257C258.81 326.343 281.68 314.264 299.582 296.555C299.789 296.043 300.41 295.736 300.617 295.224C300.617 294.917 300.824 294.712 301.134 294.712C304.549 291.334 307.654 287.751 310.758 283.656L311.069 283.145C312.103 281.814 313.449 280.278 314.173 279.05C317.278 274.648 320.175 270.042 322.452 265.742C323.28 264.412 323.797 263.183 324.521 261.852L325.039 260.522C326.902 256.632 328.661 252.537 330.006 248.443L330.834 246.907C331.144 246.088 331.351 245.372 331.662 244.348C333.214 239.434 334.559 234.111 335.801 228.174C335.801 227.867 335.801 227.662 335.801 227.355H370.364C365.708 262.774 349.564 294.917 323.901 320.303C292.752 350.911 251.773 367.597 207.896 367.597H156.983L141.15 411H208.104C263.363 411 315.518 389.708 354.738 351.218C394.165 312.421 415.793 260.829 416 205.858V184.054H223.936L208.104 227.355Z" fill="#112281"/>
</svg>
