<svg width="24" height="25" viewBox="0 0 24 25" fill="none" xmlns="http://www.w3.org/2000/svg">
<g clip-path="url(#clip0_1462_385)">
<path d="M20.4792 4.49705C19.3659 3.38047 18.0431 2.49501 16.5868 1.89152C15.1305 1.28804 13.5694 0.978433 11.9932 0.980479C5.36519 0.980479 -0.0078125 6.35741 -0.0078125 12.9903C-0.0078125 16.3067 1.33619 19.3099 3.50819 21.4835C4.62152 22.6001 5.94432 23.4855 7.40061 24.089C8.8569 24.6925 10.418 25.0021 11.9942 25.0001C18.6222 25.0001 23.9952 19.6231 23.9952 12.9903C23.9952 9.67384 22.6512 6.67064 20.4792 4.49705ZM18.9372 19.9354C18.0264 20.8491 16.9442 21.5738 15.7527 22.0677C14.5612 22.5616 13.2839 22.8151 11.9942 22.8135C6.57119 22.8135 2.17519 18.4142 2.17519 12.9873C2.17357 11.6966 2.42682 10.4184 2.92038 9.22603C3.41393 8.03365 4.13807 6.95062 5.05119 6.03918C5.96175 5.12539 7.0438 4.4007 8.23515 3.90677C9.4265 3.41285 10.7036 3.15942 11.9932 3.16107C17.4152 3.16107 21.8112 7.56029 21.8112 12.9863C21.8129 14.2768 21.5597 15.5549 21.0661 16.7471C20.5725 17.9393 19.8484 19.0222 18.9352 19.9334L18.9372 19.9354Z" fill="white"/>
<path d="M13.5375 12.991L17.3925 9.13315C17.5827 8.92572 17.6855 8.65282 17.6794 8.37139C17.6733 8.08996 17.5588 7.82177 17.3598 7.62279C17.1609 7.42381 16.8928 7.30942 16.6116 7.3035C16.3303 7.29758 16.0577 7.40059 15.8505 7.59102L15.8515 7.59002L11.9965 11.4478L8.14154 7.59002C7.93427 7.39972 7.66156 7.29689 7.38034 7.30299C7.09912 7.30909 6.83112 7.42366 6.63229 7.62277C6.43345 7.82188 6.31915 8.09014 6.31323 8.37158C6.30732 8.65301 6.41025 8.92585 6.60054 9.13315L6.59954 9.13215L10.4545 12.99L6.59954 16.8478C6.49108 16.9474 6.40387 17.0679 6.34318 17.2021C6.28248 17.3363 6.24954 17.4814 6.24635 17.6286C6.24316 17.7759 6.26978 17.9223 6.32461 18.059C6.37944 18.1957 6.46134 18.3199 6.56539 18.4241C6.66944 18.5283 6.79348 18.6103 6.93004 18.6653C7.06661 18.7202 7.21287 18.747 7.36004 18.7439C7.5072 18.7408 7.65221 18.7079 7.78635 18.6472C7.92048 18.5866 8.04096 18.4994 8.14054 18.3909L8.14154 18.3899L11.9965 14.5321L15.8515 18.3899C15.951 18.4985 16.0715 18.5857 16.2056 18.6465C16.3397 18.7072 16.4847 18.7402 16.6318 18.7434C16.779 18.7466 16.9253 18.7199 17.0619 18.6651C17.1985 18.6102 17.3226 18.5282 17.4267 18.4241C17.5308 18.32 17.6128 18.1958 17.6677 18.0592C17.7226 17.9225 17.7493 17.7761 17.7462 17.6289C17.7431 17.4816 17.7103 17.3365 17.6497 17.2022C17.5891 17.068 17.5019 16.9474 17.3935 16.8478L17.3925 16.8468L13.5375 12.991Z" fill="white"/>
</g>
<defs>
<clipPath id="clip0_1462_385">
<rect width="24" height="24.0176" fill="white" transform="translate(0 0.982422)"/>
</clipPath>
</defs>
</svg>
