<svg width="15" height="15" viewBox="0 0 15 15" fill="none" xmlns="http://www.w3.org/2000/svg">
<path d="M14.3802 11.1018L12.8825 9.60407C12.6115 9.33316 12.272 9.1409 11.9002 9.0478C11.5285 8.95469 11.1384 8.96423 10.7717 9.0754C10.4049 9.18656 10.0752 9.39519 9.81772 9.67902C9.56023 9.96286 9.38461 10.3113 9.30959 10.6871C6.83981 10.2252 4.43772 7.83307 4.2882 5.69494C4.70808 5.6177 5.09449 5.41448 5.39607 5.11231C5.79314 4.7152 6.01621 4.17663 6.01621 3.61506C6.01621 3.05349 5.79314 2.51492 5.39607 2.11781L3.89878 0.620125C3.50165 0.223063 2.96307 0 2.40148 0C1.8399 0 1.30132 0.223063 0.904191 0.620125C-3.58811 5.11231 9.88795 18.588 14.3802 14.0958C14.7771 13.6987 15 13.1602 15 12.5988C15 12.0374 14.7771 11.4989 14.3802 11.1018Z" fill="#ffffff"/>
</svg>
