<svg width="24" height="27" viewBox="0 0 24 27" fill="none" xmlns="http://www.w3.org/2000/svg">
<g clip-path="url(#clip0_1462_386)">
<path d="M20.4792 4.76854C19.3659 3.56575 18.0431 2.61193 16.5868 1.96186C15.1305 1.31179 13.5694 0.978276 11.9932 0.98048C5.36519 0.98048 -0.0078125 6.77252 -0.0078125 13.9174C-0.0078125 17.4899 1.33619 20.7249 3.50819 23.0663C4.62152 24.2691 5.94432 25.2229 7.40061 25.873C8.8569 26.5231 10.418 26.8566 11.9942 26.8544C18.6222 26.8544 23.9952 21.0623 23.9952 13.9174C23.9952 10.345 22.6512 7.10993 20.4792 4.76854ZM18.9372 21.3987C18.0264 22.383 16.9442 23.1636 15.7527 23.6957C14.5612 24.2277 13.2839 24.5007 11.9942 24.499C6.57119 24.499 2.17519 19.7601 2.17519 13.9142C2.17357 12.5239 2.42682 11.147 2.92038 9.86259C3.41393 8.57816 4.13807 7.41152 5.05119 6.42972C5.96175 5.44537 7.0438 4.66474 8.23515 4.13268C9.4265 3.60063 10.7036 3.32764 11.9932 3.32942C17.4152 3.32942 21.8112 8.06826 21.8112 13.9131C21.8129 15.3032 21.5597 16.68 21.0661 17.9643C20.5725 19.2486 19.8484 20.415 18.9352 21.3965L18.9372 21.3987Z" fill="white"/>
<path d="M13.5375 13.9184L17.3925 9.76274C17.5827 9.5393 17.6855 9.24532 17.6794 8.94217C17.6733 8.63902 17.5588 8.35012 17.3598 8.13578C17.1609 7.92143 16.8928 7.79821 16.6116 7.79184C16.3303 7.78546 16.0577 7.89642 15.8505 8.10156L15.8515 8.10048L11.9965 12.2561L8.14154 8.10048C7.93427 7.89549 7.66156 7.78472 7.38034 7.79129C7.09912 7.79787 6.83112 7.92127 6.63229 8.13575C6.43345 8.35023 6.31915 8.63921 6.31323 8.94237C6.30732 9.24553 6.41025 9.53943 6.60054 9.76274L6.59954 9.76166L10.4545 13.9173L6.59954 18.073C6.49108 18.1802 6.40387 18.31 6.34318 18.4546C6.28248 18.5992 6.24954 18.7555 6.24635 18.9141C6.24316 19.0727 6.26978 19.2304 6.32461 19.3777C6.37944 19.5249 6.46134 19.6587 6.56539 19.7709C6.66944 19.8832 6.79348 19.9715 6.93004 20.0307C7.06661 20.0899 7.21287 20.1187 7.36004 20.1154C7.5072 20.1121 7.65221 20.0767 7.78635 20.0113C7.92048 19.946 8.04096 19.8521 8.14054 19.7352L8.14154 19.7341L11.9965 15.5785L15.8515 19.7341C15.951 19.8511 16.0715 19.9451 16.2056 20.0105C16.3397 20.0759 16.4847 20.1114 16.6318 20.1149C16.779 20.1183 16.9253 20.0896 17.0619 20.0305C17.1985 19.9714 17.3226 19.8831 17.4267 19.771C17.5308 19.6588 17.6128 19.5251 17.6677 19.3779C17.7226 19.2306 17.7493 19.073 17.7462 18.9143C17.7431 18.7557 17.7103 18.5994 17.6497 18.4548C17.5891 18.3102 17.5019 18.1803 17.3935 18.073L17.3925 18.0719L13.5375 13.9184Z" fill="white"/>
</g>
<defs>
<clipPath id="clip0_1462_386">
<rect width="24" height="25.8717" fill="white" transform="translate(0 0.982422)"/>
</clipPath>
</defs>
</svg>
