<svg width="16" height="11" viewBox="0 0 16 11" fill="none" xmlns="http://www.w3.org/2000/svg">
<path d="M15.6754 1.56976C15.5877 1.26682 15.4167 0.992557 15.1808 0.77612C14.9382 0.553027 14.6408 0.393444 14.3168 0.312432C13.1041 0.00309882 8.24548 0.00309889 8.24548 0.00309889C6.21999 -0.0192027 4.19499 0.0788853 2.18192 0.296809C1.85788 0.383806 1.56108 0.546955 1.31791 0.771745C1.07899 0.994215 0.905927 1.26855 0.815523 1.56914C0.598354 2.70133 0.492838 3.85092 0.500399 5.00243C0.49265 6.1529 0.597906 7.30212 0.815523 8.43571C0.90399 8.73505 1.0764 9.00814 1.31598 9.22873C1.55555 9.44933 1.85388 9.60868 2.18192 9.69305C3.41078 10.0018 8.24548 10.0018 8.24548 10.0018C10.2736 10.0241 12.3011 9.926 14.3168 9.70804C14.6408 9.62703 14.9382 9.46745 15.1808 9.24436C15.4197 9.02376 15.5896 8.74942 15.6748 8.45071C15.8976 7.31896 16.006 6.16889 15.9983 5.0168C16.0151 3.85983 15.9069 2.70434 15.6754 1.56914V1.56976ZM6.70086 7.14214V2.86334L10.7432 5.00305L6.70086 7.14214Z" fill="#ffffff"/>
</svg>
