<svg width="233" height="231" viewBox="0 0 233 231" fill="none" xmlns="http://www.w3.org/2000/svg">
<path d="M116.558 127.784H162.81C162.52 128.819 162.231 129.97 161.651 131.408C161.535 131.868 161.535 132.156 161.361 132.559C161.187 133.134 160.898 133.709 160.782 134.17C159.738 136.644 158.463 139.06 156.84 141.362C156.377 142.052 155.971 142.512 155.507 143.088C155.217 143.548 154.928 143.836 154.754 144.123C153.595 145.562 152.551 147 151.276 148.323C150.523 149.071 149.653 149.762 148.958 150.51L148.494 150.797C147.161 152.121 145.886 153.099 144.727 153.962C143.567 154.825 142.524 155.573 141.365 156.148C140.206 156.838 138.873 157.586 137.134 158.449L136.554 158.737C135.511 159.197 134.642 159.6 133.656 160.06C131.917 160.636 130.179 161.211 128.44 161.671C128.15 161.671 127.686 161.786 127.281 161.959C126.701 162.131 125.948 162.246 125.368 162.419C122.296 162.994 119.398 163.282 116.326 163.282C103.517 163.282 91.4612 158.392 82.4774 149.301C73.4356 140.326 68.3931 128.359 68.3931 115.529C68.509 102.814 73.4935 90.8465 82.6512 81.9287C84.8537 79.6274 87.288 77.6137 89.8962 76.0027C97.7209 70.652 106.879 67.9479 116.5 67.9479H140.206L149.074 43.5533H116.5C97.1413 43.5533 78.8259 51.0328 65.1473 64.6109C62.9448 66.7972 60.8002 69.2136 58.4818 72.378L58.0181 72.8384C57.7283 73.2987 57.4386 73.7013 57.1488 73.989C55.1202 76.8657 53.3814 79.6274 51.9324 82.3315C51.7585 82.6192 51.6426 82.9068 51.4687 83.1945L51.1789 83.7699C49.8458 86.5315 48.6866 89.2355 47.8172 92.1122L47.5273 92.6876C47.3535 92.9753 47.2376 93.2629 47.2376 93.5506C46.1943 96.5999 45.4988 99.7644 44.9192 103.216H25.4445C28.2266 83.4247 37.2105 65.4163 51.6426 51.0903C68.9147 33.9451 92.0408 24.5095 116.616 24.5095H156.145L164.839 0H116.442C85.3174 0 56.2794 11.9671 34.1386 33.7726C12.1716 55.5781 0 84.5752 0 115.471V127.726H44.9192C47.4114 142.455 54.3667 155.86 64.9734 166.562C78.652 180.14 96.9674 187.792 116.442 187.792C118.76 187.792 121.253 187.677 123.861 187.332C123.977 187.332 124.151 187.332 124.325 187.332L124.788 187.216C127.107 186.929 129.309 186.641 131.164 186.181C144.959 183.419 157.768 176.63 167.795 166.677C167.911 166.389 168.258 166.216 168.374 165.929C168.374 165.756 168.49 165.641 168.664 165.641C170.577 163.742 172.316 161.729 174.054 159.427L174.228 159.14C174.808 158.392 175.561 157.529 175.967 156.838C177.706 154.364 179.329 151.775 180.604 149.359C181.068 148.611 181.357 147.92 181.763 147.173L182.053 146.425C183.096 144.238 184.082 141.937 184.835 139.636L185.299 138.773C185.473 138.312 185.589 137.91 185.762 137.334C186.632 134.573 187.385 131.581 188.081 128.244C188.081 128.071 188.081 127.956 188.081 127.784H207.44C204.831 147.69 195.79 165.756 181.415 180.025C163.969 197.227 141.017 206.606 116.442 206.606H87.9256L79.0577 231H116.558C147.509 231 176.721 219.033 198.688 197.4C220.77 175.595 232.884 146.597 233 115.701V103.446H125.426L116.558 127.784Z" fill="#ECF0FA"/>
</svg>
