<svg width="1167" height="145" viewBox="0 0 1167 145" fill="none" xmlns="http://www.w3.org/2000/svg">
<path d="M0.4 70.8C0.4 62.1333 2 53.6667 5.2 45.4C8.53333 37 13.3333 29.4 19.6 22.6C25.8667 15.8 33.4667 10.4 42.4 6.39999C51.4667 2.26666 61.6667 0.199991 73 0.199991C86.6 0.199991 98.4667 3.06666 108.6 8.8C118.733 14.4 126.267 21.8667 131.2 31.2L101.4 52.4C99.6667 47.7333 97.1333 44.1333 93.8 41.6C90.6 39.0667 87.0667 37.3333 83.2 36.4C79.4667 35.3333 75.8 34.8 72.2 34.8C66.6 34.8 61.7333 35.9333 57.6 38.2C53.6 40.3333 50.2667 43.2 47.6 46.8C45.0667 50.4 43.1333 54.4 41.8 58.8C40.6 63.2 40 67.6 40 72C40 76.9333 40.7333 81.6667 42.2 86.2C43.6667 90.7333 45.8 94.8 48.6 98.4C51.4 101.867 54.8 104.6 58.8 106.6C62.9333 108.6 67.5333 109.6 72.6 109.6C76.2 109.6 79.8667 109.067 83.6 108C87.3333 106.8 90.7333 104.933 93.8 102.4C96.8667 99.8667 99.2 96.4667 100.8 92.2L132.6 111.2C129.8 118.133 125.133 124.067 118.6 129C112.067 133.933 104.667 137.733 96.4 140.4C88.1333 142.933 79.9333 144.2 71.8 144.2C61.2667 144.2 51.6 142.133 42.8 138C34.1333 133.733 26.6 128.133 20.2 121.2C13.9333 114.133 9.06667 106.267 5.6 97.6C2.13333 88.8 0.4 79.8667 0.4 70.8ZM257.081 35H216.281V143H177.281V35H136.281V0.999992H257.081V35ZM271.286 143V0.999992H332.486C339.419 0.999992 345.819 2.39999 351.686 5.2C357.553 7.99999 362.619 11.8 366.886 16.6C371.153 21.2667 374.419 26.5333 376.686 32.4C379.086 38.2667 380.286 44.2 380.286 50.2C380.286 58.6 378.286 66.5333 374.286 74C370.419 81.4667 364.953 87.6 357.886 92.4C350.953 97.0667 342.819 99.4 333.486 99.4H310.286V143H271.286ZM310.286 65.4H330.886C332.486 65.4 334.019 64.9333 335.486 64C336.953 63.0667 338.153 61.4667 339.086 59.2C340.153 56.9333 340.686 53.9333 340.686 50.2C340.686 46.2 340.086 43.1333 338.886 41C337.819 38.7333 336.419 37.2 334.686 36.4C333.086 35.4667 331.486 35 329.886 35H310.286V65.4ZM407.695 144.4V112.4H421.895C425.362 112.4 428.029 111.8 429.895 110.6C431.895 109.267 433.229 107.133 433.895 104.2L434.295 102.2L381.695 0.999992H424.695L451.695 62.8L476.495 0.999992H517.495L463.295 122.4C459.162 130.8 454.229 136.6 448.495 139.8C442.762 142.867 435.229 144.4 425.895 144.4H407.695ZM528.531 143V0.999992H567.331V53.2H575.331L611.931 0.999992H654.731L604.731 69.6L659.331 143H612.131L573.731 88.6H567.331V143H528.531ZM785.011 35H744.211V143H705.211V35H664.211V0.999992H785.011V35ZM811.016 144.4V112.4H825.216C828.682 112.4 831.349 111.8 833.216 110.6C835.216 109.267 836.549 107.133 837.216 104.2L837.616 102.2L785.016 0.999992H828.016L855.016 62.8L879.816 0.999992H920.816L866.616 122.4C862.482 130.8 857.549 136.6 851.816 139.8C846.082 142.867 838.549 144.4 829.216 144.4H811.016ZM931.052 143V0.999992H992.252C999.185 0.999992 1005.58 2.39999 1011.45 5.2C1017.32 7.99999 1022.38 11.8 1026.65 16.6C1030.92 21.2667 1034.18 26.5333 1036.45 32.4C1038.85 38.2667 1040.05 44.2 1040.05 50.2C1040.05 58.6 1038.05 66.5333 1034.05 74C1030.18 81.4667 1024.72 87.6 1017.65 92.4C1010.72 97.0667 1002.58 99.4 993.252 99.4H970.052V143H931.052ZM970.052 65.4H990.652C992.252 65.4 993.785 64.9333 995.252 64C996.718 63.0667 997.918 61.4667 998.852 59.2C999.918 56.9333 1000.45 53.9333 1000.45 50.2C1000.45 46.2 999.852 43.1333 998.652 41C997.585 38.7333 996.185 37.2 994.452 36.4C992.852 35.4667 991.252 35 989.652 35H970.052V65.4ZM1078.11 0.999992H1121.71L1166.91 143H1127.31L1118.71 115.2H1080.91L1072.51 143H1032.71L1078.11 0.999992ZM1112.51 89.2L1099.91 39.2L1086.71 89.2H1112.51Z" fill="white" fill-opacity="0.2"/>
</svg>
