<svg width="22" height="22" viewBox="0 0 22 22" fill="none" xmlns="http://www.w3.org/2000/svg">
<path d="M4.86654 17.9963C4.86654 17.7643 4.78164 17.5634 4.61182 17.3938C4.44201 17.2242 4.24091 17.1394 4.00853 17.1394C3.77615 17.1394 3.57506 17.2242 3.40524 17.3938C3.23543 17.5634 3.15052 17.7643 3.15052 17.9963C3.15052 18.2284 3.23543 18.4293 3.40524 18.5989C3.57506 18.7685 3.77615 18.8533 4.00853 18.8533C4.24091 18.8533 4.44201 18.7685 4.61182 18.5989C4.78164 18.4293 4.86654 18.2284 4.86654 17.9963ZM13.5003 12.3725L4.3571 21.5046C4.02641 21.8349 3.62421 22 3.15052 22C2.68576 22 2.2791 21.8349 1.93053 21.5046L0.509445 20.0584C0.169815 19.7371 0 19.3354 0 18.8533C0 18.3802 0.169815 17.974 0.509445 17.6348L9.63924 8.51613C9.98781 9.39095 10.4995 10.1653 11.1743 10.8393C11.8491 11.5133 12.6244 12.0243 13.5003 12.3725ZM22 6.54778C22 6.89592 21.8972 7.36904 21.6917 7.96713C21.2716 9.16332 20.5365 10.1341 19.4863 10.8795C18.4361 11.6249 17.2809 11.9976 16.0207 11.9976C14.3673 11.9976 12.9529 11.4106 11.7776 10.2368C10.6023 9.06289 10.0146 7.65023 10.0146 5.99878C10.0146 4.34733 10.6023 2.93467 11.7776 1.7608C12.9529 0.586935 14.3673 0 16.0207 0C16.5391 0 17.0821 0.0736458 17.6496 0.220937C18.2171 0.368229 18.6975 0.575776 19.0908 0.843579C19.2338 0.941773 19.3053 1.06675 19.3053 1.2185C19.3053 1.37026 19.2338 1.49523 19.0908 1.59343L15.1627 3.85636V6.85575L17.7502 8.2885C17.7948 8.26172 18.1479 8.04524 18.8093 7.63907C19.4706 7.23291 20.0762 6.87137 20.6258 6.55447C21.1755 6.23757 21.4906 6.07912 21.571 6.07912C21.7051 6.07912 21.8101 6.12376 21.886 6.21302C21.962 6.30229 22 6.41388 22 6.54778Z" fill="white"/>
</svg>
