<svg width="22" height="22" viewBox="0 0 22 22" fill="none" xmlns="http://www.w3.org/2000/svg">
<path d="M13.3853 12.9068L14.9252 10.2395C15.0242 10.0741 14.9802 9.86473 14.8372 9.74349L13.2093 8.46493C13.2423 8.22245 13.2643 7.96894 13.2643 7.71543C13.2643 7.46192 13.2423 7.20842 13.2093 6.95491L14.8372 5.67635C14.9802 5.55511 15.0242 5.34569 14.9252 5.18036L13.3853 2.51303C13.2863 2.3477 13.0883 2.28156 12.9123 2.3477L10.9983 3.11924C10.6023 2.81062 10.1733 2.55711 9.70029 2.35872L9.41429 0.319639C9.39583 0.230495 9.34767 0.150292 9.2777 0.0922056C9.20774 0.034119 9.12014 0.00160334 9.0293 0H5.94933C5.76233 0 5.59733 0.143287 5.56433 0.330661L5.27834 2.36974C4.81634 2.56814 4.37635 2.82164 3.98035 3.13026L2.06637 2.35872C1.89037 2.29259 1.69237 2.35872 1.59338 2.52405L0.0533918 5.19138C-0.0456072 5.35671 -0.00160748 5.56613 0.141391 5.68737L1.76937 6.96593C1.73637 7.20842 1.71437 7.46192 1.71437 7.71543C1.71437 7.96894 1.73637 8.22244 1.76937 8.47595L0.141391 9.75451C-0.00160748 9.87575 -0.0456072 10.0852 0.0533918 10.2505L1.59338 12.9178C1.69237 13.0832 1.89037 13.1493 2.06637 13.0832L3.98035 12.3116C4.37635 12.6202 4.80534 12.8737 5.27834 13.0721L5.56433 15.1112C5.59733 15.2876 5.76233 15.4309 5.94933 15.4309H9.0293C9.21629 15.4309 9.38129 15.2876 9.41429 15.1002L9.70029 13.0611C10.1623 12.8627 10.6023 12.6092 10.9983 12.3006L12.9123 13.0721C13.0883 13.1383 13.2863 13.0721 13.3853 12.9068ZM7.48931 9.91984C6.27933 9.91984 5.28934 8.92786 5.28934 7.71543C5.28934 6.50301 6.27933 5.51102 7.48931 5.51102C8.6993 5.51102 9.68929 6.50301 9.68929 7.71543C9.68929 8.92786 8.6993 9.91984 7.48931 9.91984ZM21.9102 18.3737L20.8542 17.5581C20.8762 17.4038 20.8982 17.2385 20.8982 17.0731C20.8982 16.9078 20.8872 16.7425 20.8542 16.5882L21.8992 15.7725C21.9872 15.6954 22.0202 15.5631 21.9542 15.4529L20.9642 13.7445C20.9092 13.6343 20.7772 13.6012 20.6562 13.6343L19.4352 14.1303C19.1822 13.9319 18.9072 13.7665 18.5992 13.6453L18.4122 12.3447C18.4078 12.2858 18.3818 12.2306 18.3391 12.1899C18.2964 12.1491 18.2401 12.1257 18.1812 12.1242H16.2122C16.0912 12.1242 15.9812 12.2124 15.9702 12.3337L15.7832 13.6343C15.4862 13.7665 15.2002 13.9208 14.9472 14.1192L13.7262 13.6232C13.6702 13.6021 13.6085 13.6016 13.5521 13.6218C13.4957 13.642 13.4483 13.6815 13.4182 13.7335L12.4283 15.4419C12.3733 15.5521 12.3843 15.6844 12.4833 15.7615L13.5282 16.5772C13.4829 16.8989 13.4829 17.2254 13.5282 17.5471L12.4833 18.3627C12.3953 18.4399 12.3623 18.5721 12.4283 18.6824L13.4182 20.3908C13.4732 20.501 13.6052 20.5341 13.7262 20.501L14.9472 20.005C15.2002 20.2034 15.4752 20.3687 15.7832 20.49L15.9702 21.7906C15.9922 21.9118 16.0912 22 16.2122 22H18.1812C18.3022 22 18.4122 21.9118 18.4232 21.7906L18.6102 20.49C18.9072 20.3577 19.1932 20.2034 19.4352 20.005L20.6672 20.501C20.7772 20.5451 20.9092 20.501 20.9752 20.3908L21.9652 18.6824C22.0312 18.5832 21.9982 18.4509 21.9102 18.3737ZM17.1912 18.5501C16.7972 18.55 16.4194 18.393 16.1409 18.1137C15.8625 17.8345 15.7061 17.4558 15.7062 17.061C15.7064 16.6662 15.863 16.2877 16.1417 16.0086C16.4204 15.7296 16.7983 15.5729 17.1923 15.573C17.5863 15.5732 17.9641 15.7302 18.2426 16.0094C18.5211 16.2887 18.6774 16.6673 18.6773 17.0621C18.6771 17.4569 18.5205 17.8355 18.2418 18.1145C17.9631 18.3936 17.5852 18.5502 17.1912 18.5501Z" fill="white"/>
</svg>
