<svg width="20" height="22" viewBox="0 0 20 22" fill="none" xmlns="http://www.w3.org/2000/svg">
<path fill-rule="evenodd" clip-rule="evenodd" d="M9.21973 0.140971C9.7228 -0.0469904 10.2772 -0.0469903 10.7803 0.140971L18.5581 3.04693C19.4254 3.37099 20 4.1971 20 5.12002V11.0567C20 14.8305 17.86 18.2804 14.4721 19.9681L10.7454 21.8247C10.2761 22.0584 9.72386 22.0584 9.25464 21.8247L5.52786 19.9681C2.14002 18.2804 0 14.8305 0 11.0567V5.12002C0 4.1971 0.574606 3.37099 1.44195 3.04693L9.21973 0.140971ZM5.55556 10.995C5.55556 10.3836 6.05302 9.88801 6.66667 9.88801H8.88889V7.67394C8.88889 7.06255 9.38635 6.56691 10 6.56691C10.6137 6.56691 11.1111 7.06255 11.1111 7.67394V9.88801H13.3333C13.947 9.88801 14.4444 10.3836 14.4444 10.995C14.4444 11.6064 13.947 12.1021 13.3333 12.1021H11.1111V14.3161C11.1111 14.9275 10.6137 15.4232 10 15.4232C9.38635 15.4232 8.88889 14.9275 8.88889 14.3161V12.1021H6.66667C6.05302 12.1021 5.55556 11.6064 5.55556 10.995Z" fill="white"/>
</svg>
