<svg width="20" height="22" viewBox="0 0 20 22" fill="none" xmlns="http://www.w3.org/2000/svg">
<path fill-rule="evenodd" clip-rule="evenodd" d="M3.33333 6.6C3.33333 2.95492 6.3181 0 10 0C13.6819 0 16.6667 2.95492 16.6667 6.6H17.7778C19.0051 6.6 20 7.58497 20 8.8V19.8C20 21.015 19.0051 22 17.7778 22H2.22222C0.994923 22 0 21.015 0 19.8V8.8C0 7.58497 0.994923 6.6 2.22222 6.6H3.33333ZM10 2.2C12.4546 2.2 14.4444 4.16995 14.4444 6.6H5.55556C5.55556 4.16995 7.5454 2.2 10 2.2ZM10 11C9.38635 11 8.88889 11.4925 8.88889 12.1V16.5C8.88889 17.1075 9.38635 17.6 10 17.6C10.6137 17.6 11.1111 17.1075 11.1111 16.5V12.1C11.1111 11.4925 10.6137 11 10 11Z" fill="white"/>
</svg>
