<svg width="169" height="43" viewBox="0 0 169 43" fill="none" xmlns="http://www.w3.org/2000/svg">
<path d="M15.8295 17.4824H22.1109C22.0715 17.6241 22.0321 17.7816 21.9534 17.9783C21.9377 18.0413 21.9377 18.0807 21.9141 18.1358C21.8905 18.2145 21.8511 18.2932 21.8354 18.3562C21.6937 18.6946 21.5205 19.0252 21.3001 19.3401C21.2371 19.4345 21.182 19.4975 21.1191 19.5763C21.0797 19.6392 21.0403 19.6786 21.0167 19.7179C20.8593 19.9147 20.7176 20.1115 20.5444 20.2926C20.4421 20.3949 20.324 20.4893 20.2296 20.5917L20.1666 20.631C19.9856 20.8121 19.8124 20.9459 19.655 21.0639C19.4975 21.182 19.3559 21.2843 19.1984 21.3631C19.041 21.4575 18.86 21.5598 18.6238 21.6779L18.5451 21.7173C18.4034 21.7803 18.2853 21.8353 18.1515 21.8983C17.9154 21.977 17.6792 22.0557 17.4431 22.1187C17.4037 22.1187 17.3408 22.1345 17.2857 22.1581C17.207 22.1817 17.1046 22.1974 17.0259 22.221C16.6087 22.2998 16.2152 22.3391 15.798 22.3391C14.0584 22.3391 12.4211 21.67 11.201 20.4264C9.9731 19.1984 9.28829 17.5612 9.28829 15.8058C9.30404 14.0662 9.98097 12.429 11.2247 11.2089C11.5238 10.8941 11.8544 10.6186 12.2086 10.3982C13.2712 9.66611 14.5149 9.29616 15.8216 9.29616H19.041L20.2453 5.95866H15.8216C13.1925 5.95866 10.7052 6.98195 8.8475 8.8396C8.54838 9.13872 8.25713 9.46932 7.94227 9.90225L7.8793 9.96524C7.83994 10.0282 7.80059 10.0833 7.76123 10.1227C7.48573 10.5162 7.2496 10.8941 7.05281 11.264C7.02919 11.3034 7.01345 11.3427 6.98984 11.3821L6.95048 11.4608C6.76943 11.8386 6.612 12.2086 6.49393 12.6021L6.45457 12.6809C6.43096 12.7202 6.41523 12.7596 6.41523 12.7989C6.27354 13.2161 6.17907 13.6491 6.10036 14.1214H3.45556C3.83339 11.4136 5.05346 8.9498 7.01345 6.98981C9.35914 4.64413 12.4998 3.35321 15.8373 3.35321H21.2056L22.3864 0H15.8137C11.5867 0 7.64316 1.63725 4.63627 4.62053C1.653 7.6038 0 11.571 0 15.7979V17.4746H6.10036C6.43883 19.4897 7.38341 21.3237 8.82388 22.7878C10.6815 24.6454 13.1689 25.6923 15.8137 25.6923C16.1286 25.6923 16.467 25.6766 16.8212 25.6294C16.837 25.6294 16.8606 25.6294 16.8842 25.6294L16.9472 25.6136C17.2621 25.5743 17.5612 25.5349 17.8131 25.4719C19.6865 25.0941 21.426 24.1653 22.7878 22.8035C22.8035 22.7642 22.8508 22.7406 22.8665 22.7012C22.8665 22.6776 22.8823 22.6618 22.9059 22.6618C23.1656 22.4021 23.4018 22.1266 23.6379 21.8117L23.6615 21.7724C23.7402 21.6701 23.8426 21.552 23.8977 21.4575C24.1338 21.119 24.3542 20.7648 24.5274 20.4342C24.5904 20.3319 24.6297 20.2374 24.6848 20.1351L24.7242 20.0328C24.8659 19.7337 24.9997 19.4188 25.102 19.104L25.165 18.9859C25.1886 18.9229 25.2043 18.8678 25.2279 18.7891C25.346 18.4113 25.4483 18.0019 25.5428 17.5454C25.5428 17.5218 25.5428 17.5061 25.5428 17.4824H28.1719C27.8177 20.206 26.5897 22.6776 24.6376 24.6297C22.2683 26.9833 19.1512 28.2663 15.8137 28.2663H11.941L10.7366 31.6038H15.8295C20.0328 31.6038 24 29.9665 26.9833 27.0069C29.9823 24.0236 31.6274 20.0564 31.6432 15.8294V14.1528H17.0338L15.8295 17.4824Z" fill="#213194"/>
<path d="M62.1055 14.1215H53.1714L51.9434 17.5534H58.2563C57.5085 20.4108 55.0054 22.3865 52.1245 22.3865C49.3144 22.3865 46.8113 20.4501 46.032 17.6794C45.969 17.4984 45.9297 17.3094 45.8903 17.0733C45.8431 16.8529 45.8116 16.6561 45.8037 16.4593C45.7801 16.2625 45.7722 16.0579 45.7722 15.8375C45.7722 15.625 45.7801 15.4282 45.8037 15.2078C46.095 12.0513 48.6296 9.51672 51.7152 9.31206C51.8411 9.28844 51.9828 9.28845 52.1245 9.28845L52.1638 9.28057C52.1796 9.27269 52.1953 9.27271 52.2111 9.27271H57.5479L58.7758 5.84863H52.1087C49.4403 5.84863 46.9372 6.87979 45.0481 8.75319C44.7175 9.09954 44.4184 9.45374 44.1035 9.87092L43.9539 10.0677C43.6706 10.4692 43.4344 10.8627 43.2534 11.2091L43.1904 11.3193L43.0566 11.6263C42.8992 11.949 42.7811 12.2717 42.6788 12.5708L42.6 12.7912C42.482 13.1769 42.3718 13.6177 42.2852 14.1058H42.2931C42.1986 14.4757 42.0648 16.2468 42.2616 17.4039C42.5843 19.4741 43.5446 21.3711 45.0402 22.8824C46.9136 24.7715 49.4246 25.8106 52.1087 25.8106C52.463 25.8106 52.7936 25.8027 53.2658 25.7397C53.5492 25.7083 53.8405 25.6689 54.1317 25.6138C56.0445 25.2202 57.7762 24.2835 59.1694 22.8982L59.2875 22.7565C59.5236 22.5203 59.7598 22.2448 60.0982 21.8198L60.3108 21.5443C60.4997 21.2609 60.7437 20.8909 60.9484 20.5052C60.972 20.4501 61.0035 20.395 61.0428 20.3163L61.1373 20.1195C61.2947 19.7889 61.4285 19.482 61.5781 19.0569L61.6489 18.8601C61.7827 18.4587 61.8772 18.0415 61.9638 17.5928C62.1606 16.4514 62.1291 14.6646 62.1291 14.3025V14.1215H62.1055Z" fill="black"/>
<path d="M122.054 15.2784C121.322 14.8848 120.449 14.5699 119.465 14.3338C118.552 14.1213 117.536 13.9166 116.45 13.7277C115.513 13.5703 114.765 13.4365 114.144 13.3026C113.553 13.1767 113.073 13.0193 112.703 12.8304C112.412 12.6808 112.199 12.4998 112.058 12.2872C111.971 12.1534 111.869 11.8858 111.869 11.382C111.869 10.8861 111.963 10.5083 112.144 10.2721C112.372 9.98089 112.664 9.76049 113.034 9.60306C113.467 9.42202 113.978 9.30394 114.545 9.25672C115.183 9.20162 115.836 9.17014 116.536 9.17014C117.347 9.17014 118.26 9.20949 119.402 9.28033C120.433 9.35117 121.495 9.47711 122.566 9.6739L122.952 9.74474L124.195 6.32854L123.141 6.17113C121.96 6.00583 120.787 5.86413 119.638 5.76968C118.441 5.66735 117.41 5.62012 116.497 5.62012C115.458 5.62012 114.498 5.68309 113.569 5.8169C112.593 5.95072 111.703 6.23409 110.924 6.65127C110.098 7.09207 109.429 7.71392 108.933 8.50106C108.421 9.30395 108.161 10.3351 108.161 11.5631C108.161 12.7359 108.405 13.7119 108.885 14.4676C109.35 15.1918 109.98 15.79 110.767 16.2308C111.491 16.6401 112.341 16.955 113.293 17.1596C114.175 17.3564 115.135 17.5453 116.143 17.7264C116.954 17.8602 117.709 17.994 118.378 18.12C118.992 18.238 119.535 18.3955 119.984 18.608C120.354 18.7733 120.645 18.9858 120.834 19.2377C120.984 19.4345 121.055 19.7257 121.055 20.1035C121.055 20.568 120.952 20.9143 120.756 21.1426C120.488 21.4417 120.126 21.6779 119.685 21.8432C119.173 22.0321 118.615 22.158 118.008 22.2052C117.339 22.2603 116.694 22.284 116.08 22.284C115.175 22.284 114.104 22.2446 112.892 22.1737C111.759 22.1108 110.578 21.9691 109.389 21.7644L108.996 21.6936L107.752 25.1334L108.815 25.283C110.129 25.4719 111.428 25.6057 112.687 25.7002C113.947 25.7946 115.167 25.8418 116.3 25.8418C117.174 25.8418 118.079 25.7789 119 25.6608C119.984 25.527 120.897 25.2672 121.7 24.8815C122.574 24.4565 123.298 23.8504 123.857 23.0711C124.447 22.2525 124.739 21.182 124.739 19.8989C124.739 18.7654 124.487 17.813 123.999 17.0495C123.518 16.3017 122.865 15.7113 122.054 15.2784Z" fill="black"/>
<path d="M163.727 18.2381L164.301 17.9862C164.947 17.6793 165.506 17.2542 165.946 16.7111C166.387 16.1837 166.726 15.5461 166.962 14.8062C167.19 14.0899 167.308 13.2319 167.308 12.2401C167.308 10.8547 167.08 9.70551 166.639 8.83178C166.183 7.92657 165.529 7.21812 164.703 6.72222C163.923 6.25781 163.002 5.95084 161.963 5.80128C161.011 5.66746 159.956 5.60449 158.838 5.60449C158.39 5.60449 157.855 5.61236 157.241 5.62811L153.084 5.76979C152.25 5.80127 151.51 5.8485 150.825 5.88785L149.889 5.94296V25.5979H153.596V18.5766L153.974 18.5924C154.682 18.6238 155.375 18.6475 156.052 18.6711C157.162 18.7026 158.091 18.7183 158.831 18.7183H160.011L163.86 25.535L163.892 25.5979H167.969L163.727 18.2381ZM163.601 12.2401C163.601 12.9485 163.498 13.4995 163.286 13.8695C163.089 14.2316 162.821 14.4913 162.467 14.6803C162.058 14.9007 161.554 15.0423 160.972 15.1132C160.303 15.1919 159.571 15.2391 158.791 15.2391C158.067 15.2391 157.162 15.2234 156.123 15.1919C155.422 15.1683 154.706 15.1447 153.958 15.1132L153.612 15.0974V9.2647L153.958 9.24897C154.706 9.21748 155.43 9.18599 156.139 9.16237C157.193 9.12301 158.083 9.09941 158.799 9.09941C159.578 9.09941 160.31 9.13877 160.987 9.22536C161.57 9.2962 162.074 9.44575 162.475 9.65828C162.821 9.83932 163.081 10.107 163.286 10.4769C163.483 10.8233 163.601 11.5002 163.601 12.2401Z" fill="black"/>
<path d="M81.5943 9.32773L82.8301 5.85645H66.3867V25.5901H81.5943L82.8301 22.1188H70.0942V17.5613H78.6583L79.8783 14.1214H70.0942V9.32773H81.5943Z" fill="black"/>
<path d="M144.487 9.34331L145.723 5.87988H129.271V25.6057H144.487L145.723 22.1422H132.979V17.5611H141.543L142.771 14.1213H132.979V9.34331H144.487Z" fill="black"/>
<path d="M95.6527 14.4677L89.4894 5.91936L89.45 5.86426H84.6484L93.5589 17.5218L93.8108 17.8367V25.5822H97.5182V17.8288L106.673 5.86426H101.863L95.6527 14.4677Z" fill="black"/>
<path d="M86.2637 34.5791H87.6097V40.6873H86.2637V34.5791Z" fill="#0038A5"/>
<path d="M89.082 36.0114H90.4044V36.6726C90.7114 36.279 91.105 35.9248 91.7741 35.9248C92.7816 35.9248 93.3641 36.586 93.3641 37.6644V40.6949H92.0417V38.0894C92.0417 37.4597 91.7426 37.137 91.2388 37.137C90.735 37.137 90.4123 37.4597 90.4123 38.0894V40.6949H89.0899V36.0114H89.082Z" fill="#0038A5"/>
<path d="M94.8284 39.3573V37.1376H94.2695V36.0041H94.8284V34.8076H96.1508V36.0041H97.2528V37.1376H96.1508V39.1369C96.1508 39.4439 96.2846 39.5934 96.5759 39.5934C96.8199 39.5934 97.0403 39.5305 97.2292 39.4281V40.4908C96.9537 40.6561 96.631 40.7584 96.1823 40.7584C95.3794 40.7663 94.8284 40.4436 94.8284 39.3573Z" fill="#0038A5"/>
<path d="M97.9609 38.3571C97.9609 37.0189 98.9134 35.9248 100.275 35.9248C101.842 35.9248 102.55 37.137 102.55 38.4673C102.55 38.5696 102.542 38.6956 102.534 38.8136H99.2833C99.4171 39.4197 99.8343 39.7267 100.425 39.7267C100.873 39.7267 101.196 39.585 101.558 39.2466L102.314 39.9156C101.881 40.4588 101.251 40.7893 100.401 40.7893C99 40.7893 97.9609 39.8054 97.9609 38.3571ZM101.259 37.9793C101.18 37.3889 100.834 36.9875 100.275 36.9875C99.7241 36.9875 99.3699 37.381 99.2597 37.9793H101.259Z" fill="#0038A5"/>
<path d="M103.652 41.608L104.109 40.6162C104.589 40.8839 105.069 41.0413 105.691 41.0413C106.596 41.0413 107.029 40.6084 107.029 39.7661V39.5379C106.635 40.0101 106.21 40.2935 105.502 40.2935C104.416 40.2935 103.424 39.4985 103.424 38.0974C103.424 36.7042 104.424 35.917 105.502 35.917C106.226 35.917 106.651 36.224 107.013 36.6176V36.0036H108.336V39.6245C108.336 40.4588 108.139 41.0728 107.745 41.4664C107.312 41.8993 106.635 42.0961 105.73 42.0961C104.959 42.1039 104.242 41.9229 103.652 41.608ZM107.013 38.1053C107.013 37.4677 106.517 37.0269 105.872 37.0269C105.226 37.0269 104.738 37.4756 104.738 38.1289C104.738 38.7743 105.226 39.2151 105.872 39.2151C106.517 39.1994 107.013 38.7586 107.013 38.1053Z" fill="#0038A5"/>
<path d="M109.594 36.0121H110.924V36.9567C111.192 36.3112 111.632 35.894 112.42 35.9255V37.3109H112.349C111.467 37.3109 110.924 37.8461 110.924 38.9639V40.6877H109.594V36.0121Z" fill="#0038A5"/>
<path d="M113.357 34.3193H114.751V35.5001H113.357V34.3193ZM113.397 36.0117H114.727V40.6873H113.397V36.0117Z" fill="#0038A5"/>
<path d="M116.27 39.3573V37.1376H115.711V36.0041H116.27V34.8076H117.6V36.0041H118.702V37.1376H117.6V39.1369C117.6 39.4439 117.734 39.5934 118.025 39.5934C118.269 39.5934 118.49 39.5305 118.678 39.4281V40.4908C118.395 40.6561 118.072 40.7584 117.632 40.7584C116.821 40.7663 116.27 40.4436 116.27 39.3573Z" fill="#0038A5"/>
<path d="M119.702 41.7893L120.143 40.829C120.316 40.9314 120.536 41.0101 120.709 41.0101C120.938 41.0101 121.056 40.9392 121.174 40.7031L119.34 36.0117H120.749L121.811 39.1996L122.835 36.0117H124.212L122.418 40.8054C122.063 41.7579 121.678 42.1121 120.883 42.1121C120.402 42.1121 120.04 41.9861 119.702 41.7893Z" fill="#0038A5"/>
<path d="M127.816 34.3193H129.21V35.5001H127.816V34.3193ZM127.848 36.0117H129.17V40.6873H127.848V36.0117Z" fill="#0038A5"/>
<path d="M130.51 36.0114H131.84V36.6726C132.147 36.279 132.541 35.9248 133.21 35.9248C134.217 35.9248 134.8 36.586 134.8 37.6644V40.6949H133.469V38.0894C133.469 37.4597 133.17 37.137 132.667 37.137C132.163 37.137 131.84 37.4597 131.84 38.0894V40.6949H130.51V36.0114Z" fill="#0038A5"/>
<path d="M138.529 38.3417C138.529 36.7831 139.553 35.9251 140.655 35.9251C141.363 35.9251 141.796 36.2479 142.111 36.6257V34.3193H143.441V40.6873H142.111V40.0183C141.788 40.4512 141.347 40.7739 140.655 40.7739C139.568 40.7739 138.529 39.9159 138.529 38.3417ZM142.134 38.3417C142.134 37.5624 141.623 37.0507 141.001 37.0507C140.379 37.0507 139.86 37.5545 139.86 38.3574C139.86 39.1367 140.379 39.6483 141.001 39.6483C141.623 39.6483 142.134 39.1367 142.134 38.3417Z" fill="#0038A5"/>
<path d="M144.488 38.3571C144.488 37.0189 145.441 35.9248 146.802 35.9248C148.361 35.9248 149.077 37.137 149.077 38.4673C149.077 38.5696 149.069 38.6956 149.062 38.8136H145.811C145.944 39.4197 146.362 39.7267 146.952 39.7267C147.401 39.7267 147.716 39.585 148.086 39.2466L148.841 39.9156C148.408 40.4588 147.779 40.7893 146.928 40.7893C145.527 40.7893 144.488 39.8054 144.488 38.3571ZM147.786 37.9793C147.708 37.3889 147.361 36.9875 146.802 36.9875C146.251 36.9875 145.897 37.381 145.787 37.9793H147.786Z" fill="#0038A5"/>
<path d="M150.375 39.3573V37.1376H149.816V36.0041H150.375V34.8076H151.698V36.0041H152.8V37.1376H151.698V39.1369C151.698 39.4439 151.831 39.5934 152.123 39.5934C152.367 39.5934 152.587 39.5305 152.776 39.4281V40.4908C152.501 40.6561 152.178 40.7584 151.729 40.7584C150.918 40.7663 150.375 40.4436 150.375 39.3573Z" fill="#0038A5"/>
<path d="M153.588 39.3261C153.588 38.3028 154.367 37.8305 155.469 37.8305C155.941 37.8305 156.28 37.9093 156.611 38.0195V37.9407C156.611 37.3897 156.272 37.0827 155.611 37.0827C155.107 37.0827 154.745 37.1772 154.32 37.3346L153.989 36.3192C154.509 36.0909 155.013 35.9414 155.808 35.9414C156.532 35.9414 157.059 36.1303 157.39 36.4609C157.736 36.8072 157.894 37.3268 157.894 37.9565V40.6721H156.611V40.1684C156.288 40.5226 155.839 40.7587 155.194 40.7587C154.312 40.7745 153.588 40.2707 153.588 39.3261ZM156.626 39.0349V38.7987C156.398 38.6964 156.107 38.6255 155.776 38.6255C155.209 38.6255 154.863 38.8538 154.863 39.2868C154.863 39.641 155.162 39.8535 155.587 39.8535C156.209 39.8614 156.626 39.515 156.626 39.0349Z" fill="#0038A5"/>
<path d="M159.137 34.3193H160.53V35.5001H159.137V34.3193ZM159.176 36.0117H160.506V40.6873H159.176V36.0117Z" fill="#0038A5"/>
<path d="M161.9 34.3193H163.231V40.6873H161.9V34.3193Z" fill="#0038A5"/>
<path d="M164.191 40.0651L164.758 39.1914C165.262 39.5613 165.797 39.7503 166.238 39.7503C166.624 39.7503 166.797 39.6086 166.797 39.3803C166.797 39.0891 166.34 38.9946 165.829 38.8372C165.175 38.6483 164.435 38.3413 164.435 37.4125C164.435 36.46 165.207 35.9326 166.144 35.9326C166.734 35.9326 167.379 36.1373 167.891 36.4757L167.387 37.3888C166.923 37.1212 166.466 36.9559 166.12 36.9559C165.797 36.9559 165.632 37.0976 165.632 37.2944C165.632 37.5541 166.073 37.6801 166.584 37.8532C167.238 38.0736 168.001 38.3885 168.001 39.2622C168.001 40.3012 167.222 40.7735 166.214 40.7735C165.545 40.7735 164.813 40.5531 164.191 40.0651Z" fill="#0038A5"/>
</svg>
