<svg width="169" height="43" viewBox="0 0 169 43" fill="none" xmlns="http://www.w3.org/2000/svg">
<path d="M16.8275 17.4824H23.1089C23.0695 17.6241 23.0302 17.7816 22.9515 17.9783C22.9357 18.0413 22.9357 18.0807 22.9121 18.1358C22.8885 18.2145 22.8491 18.2932 22.8334 18.3562C22.6917 18.6946 22.5185 19.0252 22.2981 19.3401C22.2352 19.4345 22.1801 19.4975 22.1171 19.5763C22.0777 19.6392 22.0384 19.6786 22.0148 19.7179C21.8573 19.9147 21.7157 20.1115 21.5425 20.2926C21.4402 20.3949 21.3221 20.4893 21.2276 20.5917L21.1647 20.631C20.9836 20.8121 20.8104 20.9459 20.653 21.0639C20.4956 21.182 20.3539 21.2843 20.1965 21.3631C20.039 21.4575 19.858 21.5598 19.6219 21.6779L19.5431 21.7173C19.4015 21.7803 19.2834 21.8353 19.1496 21.8983C18.9134 21.977 18.6773 22.0557 18.4411 22.1187C18.4018 22.1187 18.3388 22.1345 18.2837 22.1581C18.205 22.1817 18.1027 22.1974 18.024 22.221C17.6068 22.2998 17.2132 22.3391 16.796 22.3391C15.0564 22.3391 13.4192 21.67 12.1991 20.4264C10.9711 19.1984 10.2863 17.5612 10.2863 15.8058C10.3021 14.0662 10.979 12.429 12.2227 11.2089C12.5218 10.8941 12.8524 10.6186 13.2066 10.3982C14.2693 9.66611 15.513 9.29616 16.8196 9.29616H20.039L21.2434 5.95866H16.8196C14.1906 5.95866 11.7032 6.98195 9.84554 8.8396C9.54643 9.13872 9.25518 9.46932 8.94032 9.90225L8.87735 9.96524C8.83799 10.0282 8.79864 10.0833 8.75928 10.1227C8.48378 10.5162 8.24764 10.8941 8.05086 11.264C8.02724 11.3034 8.0115 11.3427 7.98788 11.3821L7.94852 11.4608C7.76748 11.8386 7.61005 12.2086 7.49198 12.6021L7.45262 12.6809C7.42901 12.7202 7.41327 12.7596 7.41327 12.7989C7.27159 13.2161 7.17712 13.6491 7.09841 14.1214H4.45361C4.83143 11.4136 6.05151 8.9498 8.0115 6.98981C10.3572 4.64413 13.4979 3.35321 16.8354 3.35321H22.2037L23.3844 0H16.8118C12.5848 0 8.64121 1.63725 5.63432 4.62053C2.65105 7.6038 0.998047 11.571 0.998047 15.7979V17.4746H7.09841C7.43688 19.4897 8.38146 21.3237 9.82193 22.7878C11.6796 24.6454 14.167 25.6923 16.8118 25.6923C17.1266 25.6923 17.4651 25.6766 17.8193 25.6294C17.835 25.6294 17.8587 25.6294 17.8823 25.6294L17.9452 25.6136C18.2601 25.5743 18.5592 25.5349 18.8111 25.4719C20.6845 25.0941 22.4241 24.1653 23.7858 22.8035C23.8016 22.7642 23.8488 22.7406 23.8646 22.7012C23.8646 22.6776 23.8803 22.6618 23.9039 22.6618C24.1637 22.4021 24.3998 22.1266 24.636 21.8117L24.6596 21.7724C24.7383 21.6701 24.8406 21.552 24.8957 21.4575C25.1319 21.119 25.3523 20.7648 25.5254 20.4342C25.5884 20.3319 25.6278 20.2374 25.6829 20.1351L25.7222 20.0328C25.8639 19.7337 25.9977 19.4188 26.1 19.104L26.163 18.9859C26.1866 18.9229 26.2024 18.8678 26.226 18.7891C26.3441 18.4113 26.4464 18.0019 26.5408 17.5454C26.5408 17.5218 26.5408 17.5061 26.5408 17.4824H29.1699C28.8157 20.206 27.5877 22.6776 25.6356 24.6297C23.2663 26.9833 20.1492 28.2663 16.8118 28.2663H12.939L11.7347 31.6038H16.8275C21.0308 31.6038 24.998 29.9665 27.9813 27.0069C30.9803 24.0236 32.6255 20.0564 32.6412 15.8294V14.1528H18.0318L16.8275 17.4824Z" fill="white"/>
<path d="M63.1035 14.1225H54.1694L52.9415 17.5544H59.2544C58.5066 20.4118 56.0035 22.3875 53.1225 22.3875C50.3124 22.3875 47.8093 20.4511 47.03 17.6804C46.9671 17.4993 46.9277 17.3104 46.8884 17.0743C46.8411 16.8539 46.8096 16.6571 46.8018 16.4603C46.7782 16.2635 46.7703 16.0589 46.7703 15.8385C46.7703 15.6259 46.7782 15.4291 46.8018 15.2087C47.093 12.0523 49.6276 9.51769 52.7132 9.31304C52.8392 9.28942 52.9809 9.28942 53.1225 9.28942L53.1619 9.28154C53.1776 9.27367 53.1934 9.27369 53.2091 9.27369H58.5459L59.7739 5.84961H53.1068C50.4384 5.84961 47.9353 6.88077 46.0461 8.75417C45.7155 9.10051 45.4164 9.45471 45.1015 9.8719L44.952 10.0687C44.6686 10.4701 44.4325 10.8637 44.2514 11.2101L44.1885 11.3202L44.0546 11.6272C43.8972 11.95 43.7791 12.2727 43.6768 12.5718L43.5981 12.7922C43.48 13.1779 43.3698 13.6187 43.2832 14.1067H43.2911C43.1967 14.4767 43.0628 16.2478 43.2596 17.4049C43.5824 19.4751 44.5427 21.3721 46.0382 22.8834C47.9116 24.7725 50.4226 25.8116 53.1068 25.8116C53.461 25.8116 53.7916 25.8037 54.2639 25.7407C54.5473 25.7092 54.8385 25.6699 55.1298 25.6148C57.0425 25.2212 58.7742 24.2845 60.1675 22.8991L60.2855 22.7575C60.5217 22.5213 60.7578 22.2458 61.0963 21.8208L61.3088 21.5452C61.4977 21.2619 61.7418 20.8919 61.9464 20.5062C61.97 20.4511 62.0015 20.396 62.0409 20.3173L62.1353 20.1205C62.2927 19.7899 62.4266 19.4829 62.5761 19.0579L62.647 18.8611C62.7808 18.4596 62.8752 18.0424 62.9618 17.5938C63.1586 16.4524 63.1271 14.6656 63.1271 14.3035V14.1225H63.1035Z" fill="white"/>
<path d="M123.052 15.2794C122.32 14.8858 121.447 14.5709 120.463 14.3348C119.55 14.1222 118.534 13.9176 117.448 13.7287C116.511 13.5713 115.763 13.4374 115.142 13.3036C114.551 13.1777 114.071 13.0202 113.701 12.8313C113.41 12.6818 113.197 12.5007 113.056 12.2882C112.969 12.1544 112.867 11.8868 112.867 11.383C112.867 10.8871 112.961 10.5093 113.142 10.2731C113.371 9.98187 113.662 9.76147 114.032 9.60404C114.465 9.42299 114.976 9.30492 115.543 9.25769C116.181 9.20259 116.834 9.17112 117.535 9.17112C118.345 9.17112 119.258 9.21046 120.4 9.28131C121.431 9.35215 122.494 9.47809 123.564 9.67488L123.95 9.74572L125.193 6.32952L124.139 6.1721C122.958 6.0068 121.785 5.86511 120.636 5.77065C119.439 5.66832 118.408 5.62109 117.495 5.62109C116.456 5.62109 115.496 5.68407 114.567 5.81788C113.591 5.95169 112.701 6.23506 111.922 6.65225C111.096 7.09305 110.427 7.7149 109.931 8.50204C109.419 9.30493 109.159 10.3361 109.159 11.564C109.159 12.7369 109.403 13.7129 109.883 14.4686C110.348 15.1927 110.978 15.791 111.765 16.2318C112.489 16.6411 113.339 16.956 114.291 17.1606C115.173 17.3574 116.133 17.5463 117.141 17.7274C117.952 17.8612 118.707 17.995 119.376 18.1209C119.99 18.239 120.534 18.3964 120.982 18.609C121.352 18.7743 121.643 18.9868 121.832 19.2387C121.982 19.4355 122.053 19.7267 122.053 20.1045C122.053 20.5689 121.95 20.9153 121.754 21.1436C121.486 21.4427 121.124 21.6788 120.683 21.8441C120.171 22.033 119.613 22.159 119.006 22.2062C118.337 22.2613 117.692 22.2849 117.078 22.2849C116.173 22.2849 115.102 22.2456 113.89 22.1747C112.757 22.1117 111.576 21.9701 110.387 21.7654L109.994 21.6946L108.75 25.1344L109.813 25.2839C111.127 25.4729 112.426 25.6067 113.685 25.7011C114.945 25.7956 116.165 25.8428 117.298 25.8428C118.172 25.8428 119.077 25.7798 119.998 25.6618C120.982 25.5279 121.895 25.2682 122.698 24.8825C123.572 24.4574 124.296 23.8513 124.855 23.0721C125.445 22.2534 125.737 21.1829 125.737 19.8999C125.737 18.7664 125.485 17.814 124.997 17.0504C124.516 16.3026 123.863 15.7123 123.052 15.2794Z" fill="white"/>
<path d="M164.725 18.2391L165.299 17.9872C165.945 17.6802 166.504 17.2552 166.944 16.712C167.385 16.1847 167.724 15.5471 167.96 14.8072C168.188 14.0909 168.306 13.2329 168.306 12.2411C168.306 10.8557 168.078 9.70649 167.637 8.83276C167.181 7.92755 166.527 7.2191 165.701 6.7232C164.921 6.25878 164.001 5.95181 162.961 5.80225C162.009 5.66844 160.954 5.60547 159.837 5.60547C159.388 5.60547 158.853 5.61334 158.239 5.62908L154.083 5.77076C153.248 5.80225 152.508 5.84947 151.823 5.88883L150.887 5.94393V25.5989H154.594V18.5776L154.972 18.5933C155.68 18.6248 156.373 18.6484 157.05 18.6721C158.16 18.7035 159.089 18.7193 159.829 18.7193H161.009L164.859 25.5359L164.89 25.5989H168.967L164.725 18.2391ZM164.599 12.2411C164.599 12.9495 164.496 13.5005 164.284 13.8705C164.087 14.2326 163.819 14.4923 163.465 14.6812C163.056 14.9016 162.552 15.0433 161.97 15.1141C161.301 15.1929 160.569 15.2401 159.789 15.2401C159.065 15.2401 158.16 15.2244 157.121 15.1929C156.42 15.1693 155.704 15.1456 154.956 15.1141L154.61 15.0984V9.26568L154.956 9.24995C155.704 9.21846 156.428 9.18696 157.137 9.16335C158.191 9.12399 159.081 9.10039 159.797 9.10039C160.576 9.10039 161.309 9.13975 161.985 9.22633C162.568 9.29718 163.072 9.44672 163.473 9.65925C163.819 9.84029 164.079 10.1079 164.284 10.4779C164.481 10.8242 164.599 11.5012 164.599 12.2411Z" fill="white"/>
<path d="M82.5943 9.3287L83.8301 5.85742H67.3867V25.5911H82.5943L83.8301 22.1198H71.0942V17.5622H79.6583L80.8783 14.1224H71.0942V9.3287H82.5943Z" fill="white"/>
<path d="M145.485 9.34429L146.721 5.88086H130.27V25.6067H145.485L146.721 22.1432H133.977V17.5621H142.541L143.769 14.1223H133.977V9.34429H145.485Z" fill="white"/>
<path d="M96.6527 14.4687L90.4894 5.92034L90.45 5.86523H85.6484L94.5589 17.5228L94.8108 17.8377V25.5832H98.5182V17.8298L107.673 5.86523H102.863L96.6527 14.4687Z" fill="white"/>
<path d="M87.2617 34.5801H88.6077V40.6883H87.2617V34.5801Z" fill="white"/>
<path d="M90.0801 36.0124H91.4025V36.6736C91.7095 36.28 92.103 35.9258 92.7721 35.9258C93.7797 35.9258 94.3621 36.587 94.3621 37.6654V40.6959H93.0397V38.0904C93.0397 37.4607 92.7406 37.138 92.2368 37.138C91.7331 37.138 91.4104 37.4607 91.4104 38.0904V40.6959H90.088V36.0124H90.0801Z" fill="white"/>
<path d="M95.8265 39.3583V37.1385H95.2676V36.005H95.8265V34.8086H97.1489V36.005H98.2509V37.1385H97.1489V39.1379C97.1489 39.4449 97.2827 39.5944 97.5739 39.5944C97.8179 39.5944 98.0383 39.5314 98.2272 39.4291V40.4918C97.9517 40.6571 97.629 40.7594 97.1803 40.7594C96.3774 40.7673 95.8265 40.4445 95.8265 39.3583Z" fill="white"/>
<path d="M98.959 38.3581C98.959 37.0199 99.9114 35.9258 101.273 35.9258C102.84 35.9258 103.548 37.138 103.548 38.4683C103.548 38.5706 103.54 38.6965 103.532 38.8146H100.281C100.415 39.4207 100.832 39.7277 101.423 39.7277C101.871 39.7277 102.194 39.586 102.556 39.2475L103.312 39.9166C102.879 40.4597 102.249 40.7903 101.399 40.7903C99.998 40.7903 98.959 39.8064 98.959 38.3581ZM102.257 37.9802C102.178 37.3899 101.832 36.9884 101.273 36.9884C100.722 36.9884 100.368 37.382 100.258 37.9802H102.257Z" fill="white"/>
<path d="M104.65 41.609L105.107 40.6172C105.587 40.8848 106.067 41.0423 106.689 41.0423C107.594 41.0423 108.027 40.6094 108.027 39.7671V39.5388C107.633 40.0111 107.208 40.2945 106.5 40.2945C105.414 40.2945 104.422 39.4995 104.422 38.0984C104.422 36.7051 105.422 35.918 106.5 35.918C107.224 35.918 107.649 36.225 108.011 36.6185V36.0046H109.334V39.6254C109.334 40.4598 109.137 41.0738 108.743 41.4673C108.31 41.9003 107.633 42.097 106.728 42.097C105.957 42.1049 105.241 41.9239 104.65 41.609ZM108.011 38.1063C108.011 37.4687 107.515 37.0278 106.87 37.0278C106.224 37.0278 105.736 37.4765 105.736 38.1299C105.736 38.7753 106.224 39.2161 106.87 39.2161C107.515 39.2004 108.011 38.7596 108.011 38.1063Z" fill="white"/>
<path d="M110.594 36.014H111.924V36.9586C112.192 36.3131 112.632 35.896 113.42 35.9274V37.3128H113.349C112.467 37.3128 111.924 37.8481 111.924 38.9658V40.6897H110.594V36.014Z" fill="white"/>
<path d="M114.355 34.3203H115.749V35.501H114.355V34.3203ZM114.395 36.0127H115.725V40.6883H114.395V36.0127Z" fill="white"/>
<path d="M117.268 39.3583V37.1385H116.709V36.005H117.268V34.8086H118.598V36.005H119.7V37.1385H118.598V39.1379C118.598 39.4449 118.732 39.5944 119.023 39.5944C119.267 39.5944 119.488 39.5314 119.677 39.4291V40.4918C119.393 40.6571 119.07 40.7594 118.63 40.7594C117.819 40.7673 117.268 40.4445 117.268 39.3583Z" fill="white"/>
<path d="M120.7 41.7893L121.141 40.829C121.314 40.9314 121.534 41.0101 121.708 41.0101C121.936 41.0101 122.054 40.9392 122.172 40.7031L120.338 36.0117H121.747L122.81 39.1996L123.833 36.0117H125.21L123.416 40.8054C123.061 41.7579 122.676 42.1121 121.881 42.1121C121.401 42.1121 121.038 41.9861 120.7 41.7893Z" fill="white"/>
<path d="M128.816 34.3203H130.21V35.501H128.816V34.3203ZM128.848 36.0127H130.17V40.6883H128.848V36.0127Z" fill="white"/>
<path d="M131.508 36.0124H132.838V36.6736C133.145 36.28 133.539 35.9258 134.208 35.9258C135.215 35.9258 135.798 36.587 135.798 37.6654V40.6959H134.467V38.0904C134.467 37.4607 134.168 37.138 133.665 37.138C133.161 37.138 132.838 37.4607 132.838 38.0904V40.6959H131.508V36.0124Z" fill="white"/>
<path d="M139.527 38.3426C139.527 36.7841 140.551 35.9261 141.653 35.9261C142.361 35.9261 142.794 36.2488 143.109 36.6267V34.3203H144.439V40.6883H143.109V40.0192C142.786 40.4522 142.345 40.7749 141.653 40.7749C140.566 40.7749 139.527 39.9169 139.527 38.3426ZM143.132 38.3426C143.132 37.5634 142.621 37.0517 141.999 37.0517C141.377 37.0517 140.858 37.5555 140.858 38.3584C140.858 39.1376 141.377 39.6493 141.999 39.6493C142.621 39.6493 143.132 39.1376 143.132 38.3426Z" fill="white"/>
<path d="M145.486 38.3581C145.486 37.0199 146.439 35.9258 147.801 35.9258C149.359 35.9258 150.075 37.138 150.075 38.4683C150.075 38.5706 150.068 38.6965 150.06 38.8146H146.809C146.943 39.4207 147.36 39.7277 147.95 39.7277C148.399 39.7277 148.714 39.586 149.084 39.2475L149.839 39.9166C149.406 40.4597 148.777 40.7903 147.926 40.7903C146.525 40.7903 145.486 39.8064 145.486 38.3581ZM148.784 37.9802C148.706 37.3899 148.359 36.9884 147.801 36.9884C147.25 36.9884 146.895 37.382 146.785 37.9802H148.784Z" fill="white"/>
<path d="M151.375 39.3583V37.1385H150.816V36.005H151.375V34.8086H152.698V36.005H153.8V37.1385H152.698V39.1379C152.698 39.4449 152.831 39.5944 153.123 39.5944C153.367 39.5944 153.587 39.5314 153.776 39.4291V40.4918C153.501 40.6571 153.178 40.7594 152.729 40.7594C151.918 40.7673 151.375 40.4445 151.375 39.3583Z" fill="white"/>
<path d="M154.586 39.3261C154.586 38.3028 155.365 37.8305 156.467 37.8305C156.939 37.8305 157.278 37.9093 157.609 38.0195V37.9407C157.609 37.3897 157.27 37.0827 156.609 37.0827C156.105 37.0827 155.743 37.1772 155.318 37.3346L154.987 36.3192C155.507 36.0909 156.011 35.9414 156.806 35.9414C157.53 35.9414 158.057 36.1303 158.388 36.4609C158.734 36.8072 158.892 37.3268 158.892 37.9565V40.6721H157.609V40.1684C157.286 40.5226 156.837 40.7587 156.192 40.7587C155.31 40.7745 154.586 40.2707 154.586 39.3261ZM157.624 39.0349V38.7987C157.396 38.6964 157.105 38.6255 156.774 38.6255C156.207 38.6255 155.861 38.8538 155.861 39.2868C155.861 39.641 156.16 39.8535 156.585 39.8535C157.207 39.8614 157.624 39.515 157.624 39.0349Z" fill="white"/>
<path d="M160.135 34.3203H161.528V35.501H160.135V34.3203ZM160.174 36.0127H161.504V40.6883H160.174V36.0127Z" fill="white"/>
<path d="M162.898 34.3203H164.229V40.6883H162.898V34.3203Z" fill="white"/>
<path d="M165.188 40.0661L165.754 39.1924C166.258 39.5623 166.793 39.7512 167.234 39.7512C167.62 39.7512 167.793 39.6096 167.793 39.3813C167.793 39.09 167.336 38.9956 166.825 38.8382C166.171 38.6492 165.432 38.3423 165.432 37.4134C165.432 36.461 166.203 35.9336 167.14 35.9336C167.73 35.9336 168.375 36.1383 168.887 36.4767L168.383 37.3898C167.919 37.1222 167.462 36.9569 167.116 36.9569C166.793 36.9569 166.628 37.0986 166.628 37.2953C166.628 37.5551 167.069 37.6811 167.58 37.8542C168.234 38.0746 168.997 38.3895 168.997 39.2632C168.997 40.3022 168.218 40.7745 167.21 40.7745C166.541 40.7745 165.809 40.5541 165.188 40.0661Z" fill="white"/>
</svg>
