<svg width="31" height="31" viewBox="0 0 31 31" fill="none" xmlns="http://www.w3.org/2000/svg">
<path d="M28.5045 30.3965L30.3867 28.5142L26.2441 22.7146C25.8908 22.22 25.3204 21.9264 24.7125 21.9264H24.5785C24.0793 21.9264 23.6006 21.7281 23.2476 21.3751L18.2126 16.3402L23.1383 11.3437C23.646 11.4937 24.1836 11.5741 24.74 11.5741C27.8586 11.5741 30.3867 9.04602 30.3867 5.92743C30.3867 2.80884 27.8586 0.280727 24.74 0.280727C21.6214 0.280727 19.0933 2.80884 19.0933 5.92743C19.0933 6.48381 19.1738 7.02139 19.3237 7.52918L14.3273 12.4548L12.5055 10.633L13.0787 8.91326C13.3042 8.2369 13.1282 7.49122 12.624 6.9871L6.30749 0.670549C5.57243 -0.0645089 4.38066 -0.0645089 3.64561 0.670551L0.660785 3.65537C-0.0742728 4.39043 -0.0742764 5.5822 0.660781 6.31725L6.97733 12.6338C7.48146 13.1379 8.22714 13.314 8.90349 13.0885L10.6233 12.5153L12.4316 14.3236L7.38744 19.2963C6.91881 19.1703 6.42608 19.1031 5.91766 19.1031C2.79907 19.1031 0.27096 21.6312 0.27096 24.7498C0.27096 25.2556 0.33747 25.7459 0.462223 26.2124L4.49214 22.1825L7.7999 22.8676L8.48496 26.1753L4.45505 30.2052C4.92154 30.33 5.41184 30.3965 5.91766 30.3965C9.03625 30.3965 11.5644 27.8684 11.5644 24.7498C11.5644 24.2413 11.4972 23.7486 11.3712 23.28L16.3438 18.2358L21.3654 23.2574C21.7184 23.6104 21.9167 24.0891 21.9167 24.5883V24.7223C21.9167 25.3301 22.2102 25.9006 22.7049 26.2539L28.5045 30.3965ZM10.3476 10.3574C9.98008 10.7249 9.38419 10.7249 9.01666 10.3574L3.36996 4.71067C3.00243 4.34314 3.00243 3.74726 3.36996 3.37973C3.73749 3.0122 4.33337 3.0122 4.7009 3.37973L10.3476 9.02643C10.7151 9.39396 10.7151 9.98984 10.3476 10.3574ZM24.74 9.69193L23.8534 9.2364L22.8578 9.18759L22.3177 8.34978L21.4799 7.8097L21.4311 6.81409L20.9755 5.92746L21.4311 5.04084L21.4799 4.04523L22.3177 3.50515L22.8578 2.66734L23.8534 2.61853L24.74 2.16299L25.6266 2.61853L26.6222 2.66734L27.1623 3.50515L28.0001 4.04523L28.049 5.04084L28.5045 5.92746L28.049 6.81409L28.0001 7.8097L27.1623 8.34978L26.6222 9.18759L25.6266 9.2364L24.74 9.69193Z" fill="white"/>
</svg>
