<svg width="30" height="30" viewBox="0 0 30 30" fill="none" xmlns="http://www.w3.org/2000/svg">
<path d="M13.2533 1.3634C13.7083 -0.45447 16.2917 -0.454466 16.7467 1.36341L16.8808 1.89915C17.2238 3.26959 18.9393 3.72926 19.9216 2.71393L20.3056 2.31701C21.6086 0.970181 23.8459 2.2619 23.331 4.06372L23.1792 4.59473C22.7911 5.95307 24.0469 7.20892 25.4053 6.82076L25.9363 6.66901C27.7381 6.15411 29.0298 8.39143 27.683 9.6944L27.2861 10.0784C26.2707 11.0607 26.7304 12.7762 28.1009 13.1192L28.6366 13.2533C30.4545 13.7083 30.4545 16.2917 28.6366 16.7467L28.1008 16.8808C26.7304 17.2238 26.2707 18.9393 27.2861 19.9216L27.683 20.3056C29.0298 21.6086 27.7381 23.8459 25.9363 23.331L25.4053 23.1792C24.0469 22.7911 22.7911 24.0469 23.1792 25.4053L23.331 25.9363C23.8459 27.7381 21.6086 29.0298 20.3056 27.683L19.9216 27.2861C18.9393 26.2707 17.2238 26.7304 16.8808 28.1009L16.7467 28.6366C16.2917 30.4545 13.7083 30.4545 13.2533 28.6366L13.1192 28.1008C12.7762 26.7304 11.0607 26.2707 10.0784 27.2861L9.69439 27.683C8.39142 29.0298 6.15411 27.7381 6.66901 25.9363L6.82076 25.4053C7.20892 24.0469 5.95306 22.7911 4.59473 23.1792L4.06371 23.331C2.26189 23.8459 0.970185 21.6086 2.31701 20.3056L2.71393 19.9216C3.72926 18.9393 3.26958 17.2238 1.89915 16.8808L1.3634 16.7467C-0.45447 16.2917 -0.454466 13.7083 1.36341 13.2533L1.89915 13.1192C3.26959 12.7762 3.72926 11.0607 2.71393 10.0784L2.31701 9.69439C0.970182 8.39142 2.2619 6.15411 4.06372 6.66901L4.59473 6.82076C5.95307 7.20892 7.20892 5.95306 6.82076 4.59473L6.66901 4.06371C6.15411 2.26189 8.39143 0.970186 9.6944 2.31701L10.0784 2.71393C11.0607 3.72926 12.7762 3.26958 13.1192 1.89915L13.2533 1.3634ZM24.3243 15.9371H15.4685L10.1546 23.0223C11.5685 23.8781 13.2267 24.3706 15 24.3706C19.859 24.3706 23.8542 20.6724 24.3243 15.9371ZM24.3243 14.063C23.8542 9.32772 19.859 5.62945 15 5.62945C13.2267 5.62945 11.5685 6.12202 10.1546 6.9778L15.4685 14.063H24.3243ZM9.46489 7.43813C9.41011 7.4783 9.35578 7.51905 9.30191 7.56037L9.46489 7.43813ZM8.65615 8.10334C6.79535 9.81586 5.6294 12.2718 5.6294 15C5.6294 17.7283 6.79535 20.1842 8.65615 21.8968L13.8287 15L8.65615 8.10334ZM9.30189 22.4397C9.35577 22.481 9.41012 22.5218 9.46492 22.562L9.30189 22.4397Z" fill="white"/>
</svg>
