<svg width="24" height="28" viewBox="0 0 24 28" fill="none" xmlns="http://www.w3.org/2000/svg">
<path d="M24 27C24 27.5523 23.5523 28 23 28H1C0.447716 28 0 27.5523 0 27C0 26.4477 0.447716 26 1 26H3V24C3 20.4198 5.09056 17.3298 8.1131 15.8806C8.6929 15.6025 9 15.1263 9 14.7016V13.2983C9 12.8737 8.6929 12.3974 8.1131 12.1194C5.09056 10.6701 3 7.58016 3 3.99995V1.99997L1.00002 2C0.447729 2 7.62939e-06 1.5523 0 1.00001C-7.62939e-06 0.447726 0.447701 4.29154e-06 0.999985 -3.33786e-06L23 -4.72069e-05C23.5523 -4.72069e-05 24 0.447669 24 0.999953C24 1.55224 23.5523 1.99995 23 1.99995H21V3.99995C21 7.58016 18.9094 10.6701 15.8869 12.1194C15.3071 12.3974 15 12.8737 15 13.2983V14.7016C15 15.1263 15.3071 15.6025 15.8869 15.8806C18.9094 17.3298 21 20.4198 21 24V26H23C23.5523 26 24 26.4477 24 27ZM19 26V24C19 21.2181 17.3772 18.8132 15.0222 17.684C13.9563 17.1729 13 16.1021 13 14.7016V13.2983C13 13.2983 12.64 13 12 13C11.36 13 11 13.2983 11 13.2983V14.7016C11 16.1021 10.0437 17.1729 8.97781 17.684C6.62277 18.8132 5 21.2181 5 24V26H19Z" fill="white"/>
</svg>
