<svg width="17" height="17" viewBox="0 0 17 17" fill="none" xmlns="http://www.w3.org/2000/svg">
<path d="M8.5 17C3.80508 17 0 13.1949 0 8.5C0 3.80508 3.80508 0 8.5 0C13.1949 0 17 3.80508 17 8.5C17 13.1949 13.1949 17 8.5 17ZM7.70312 3.98438V8.5C7.70312 8.76562 7.83594 9.01465 8.0584 9.16406L11.2459 11.2891C11.6111 11.5348 12.346 11.7562 12.75 11.2891C13.0802 10.9072 12.8686 10.2457 12.5 10L9.5 8V3.98438C9.5 3.54277 9.29688 3.1875 8.5 3.1875C8.0584 3.1875 7.70312 3.54277 7.70312 3.98438Z" fill="#213194"/>
</svg>
