<svg width="18" height="18" viewBox="0 0 18 18" fill="none" xmlns="http://www.w3.org/2000/svg">
<path d="M7.56139 12.5298L4.08984 9.05748L5.24675 7.90057L7.56139 10.2144L12.189 5.58594L13.3468 6.74366L7.56139 12.5282V12.5298Z" fill="white"/>
<path fill-rule="evenodd" clip-rule="evenodd" d="M0 9C0 4.02955 4.02955 0 9 0C13.9705 0 18 4.02955 18 9C18 13.9705 13.9705 18 9 18C4.02955 18 0 13.9705 0 9ZM9 16.3636C8.03299 16.3636 7.07546 16.1732 6.18206 15.8031C5.28866 15.4331 4.4769 14.8907 3.79312 14.2069C3.10935 13.5231 2.56694 12.7113 2.19689 11.8179C1.82683 10.9245 1.63636 9.96701 1.63636 9C1.63636 8.03299 1.82683 7.07546 2.19689 6.18206C2.56694 5.28866 3.10935 4.4769 3.79312 3.79312C4.4769 3.10935 5.28866 2.56694 6.18206 2.19689C7.07546 1.82683 8.03299 1.63636 9 1.63636C10.953 1.63636 12.8259 2.41217 14.2069 3.79312C15.5878 5.17407 16.3636 7.04704 16.3636 9C16.3636 10.953 15.5878 12.8259 14.2069 14.2069C12.8259 15.5878 10.953 16.3636 9 16.3636Z" fill="white"/>
</svg>
