<svg width="185" height="183" viewBox="0 0 185 183" fill="none" xmlns="http://www.w3.org/2000/svg">
<path d="M92.546 101.231H129.27C129.04 102.052 128.81 102.963 128.35 104.103C128.257 104.467 128.257 104.695 128.119 105.014C127.981 105.47 127.751 105.926 127.659 106.29C126.831 108.25 125.818 110.165 124.53 111.988C124.162 112.535 123.84 112.899 123.471 113.355C123.241 113.72 123.011 113.948 122.873 114.176C121.953 115.315 121.124 116.455 120.112 117.503C119.514 118.095 118.823 118.642 118.271 119.235L117.903 119.463C116.845 120.511 115.832 121.286 114.912 121.97C113.991 122.653 113.163 123.246 112.243 123.702C111.322 124.249 110.264 124.841 108.883 125.525L108.423 125.753C107.595 126.117 106.904 126.436 106.122 126.801C104.741 127.257 103.361 127.712 101.98 128.077C101.75 128.077 101.382 128.168 101.06 128.305C100.6 128.442 100.001 128.533 99.5411 128.67C97.102 129.125 94.801 129.353 92.362 129.353C82.1916 129.353 72.6194 125.479 65.4863 118.278C58.3072 111.167 54.3035 101.687 54.3035 91.5227C54.3955 81.4498 58.3532 71.9693 65.6244 64.9046C67.3731 63.0814 69.3059 61.4862 71.3768 60.2099C77.5895 55.9711 84.8607 53.8289 92.5 53.8289H111.322L118.363 34.5033H92.5C77.1294 34.5033 62.5871 40.4286 51.7264 51.1852C49.9776 52.9172 48.2749 54.8316 46.4341 57.3384L46.0659 57.7031C45.8358 58.0678 45.6057 58.3867 45.3756 58.6146C43.7649 60.8936 42.3844 63.0814 41.2339 65.2237C41.0958 65.4516 41.0038 65.6794 40.8657 65.9073L40.6356 66.3631C39.5771 68.5509 38.6567 70.6931 37.9664 72.972L37.7363 73.4278C37.5982 73.6557 37.5063 73.8836 37.5063 74.1115C36.6779 76.5272 36.1256 79.0341 35.6654 81.7689H20.2027C22.4117 66.0897 29.5448 51.8233 41.0037 40.4741C54.7177 26.8915 73.0796 19.4166 92.592 19.4166H123.978L130.881 0H92.454C67.7413 0 44.6853 9.48043 27.1057 26.7549C9.66418 44.0294 0 67.0012 0 91.4771V101.185H35.6654C37.6443 112.854 43.1667 123.474 51.5883 131.951C62.449 142.708 76.9913 148.77 92.454 148.77C94.2948 148.77 96.2736 148.679 98.3445 148.405C98.4366 148.405 98.5746 148.405 98.7127 148.405L99.0808 148.314C100.922 148.086 102.67 147.858 104.143 147.494C115.096 145.306 125.266 139.928 133.228 132.043C133.32 131.815 133.596 131.678 133.688 131.45C133.688 131.313 133.78 131.222 133.918 131.222C135.437 129.718 136.817 128.123 138.198 126.3L138.336 126.072C138.796 125.479 139.394 124.795 139.716 124.248C141.097 122.289 142.386 120.238 143.398 118.323C143.766 117.731 143.996 117.184 144.318 116.591L144.549 115.999C145.377 114.267 146.159 112.444 146.757 110.62L147.126 109.937C147.264 109.572 147.356 109.253 147.494 108.797C148.184 106.609 148.782 104.239 149.335 101.596C149.335 101.459 149.335 101.368 149.335 101.231H164.705C162.634 117.001 155.455 131.313 144.042 142.617C130.19 156.245 111.966 163.675 92.454 163.675H69.8122L62.7711 183H92.546C117.121 183 140.315 173.52 157.756 156.382C175.29 139.107 184.908 116.135 185 91.6595V81.9511H99.5871L92.546 101.231Z" fill="white" fill-opacity="0.95"/>
</svg>
